<svg width="21" height="20" viewBox="0 0 21 20" fill="none" xmlns="http://www.w3.org/2000/svg">
<path d="M15.2396 15.625C17.0021 13.9812 17.7833 11.25 17.3146 8.63123H10.3208V11.525H14.3021C14.2247 11.9789 14.0529 12.4115 13.7978 12.7948C13.5426 13.1781 13.2098 13.5035 12.8208 13.75L15.2396 15.625Z" fill="#4285F4"/>
<path d="M3.67725 13.3187C4.19097 14.3311 4.92781 15.2137 5.83223 15.8999C6.73665 16.586 7.78505 17.058 8.89838 17.28C10.0117 17.5021 11.1609 17.4685 12.2594 17.1818C13.3579 16.8951 14.3769 16.3628 15.2397 15.625L12.821 13.75C12.2474 14.1219 11.5962 14.3575 10.9174 14.4386C10.2386 14.5197 9.55023 14.4442 8.90514 14.2179C8.26006 13.9916 7.67539 13.6205 7.19602 13.1331C6.71664 12.6457 6.35531 12.055 6.13975 11.4062L3.67725 13.3187Z" fill="#34A853"/>
<path d="M6.13931 11.4063C5.82681 10.4313 5.82681 9.53126 6.13931 8.55626L3.67681 6.63751C3.16318 7.67733 2.896 8.8215 2.896 9.98126C2.896 11.141 3.16318 12.2852 3.67681 13.325L6.13931 11.4063Z" fill="#FBBC02"/>
<path d="M6.13975 8.55626C7.00225 5.85626 10.671 4.29376 13.1335 6.60001L15.2835 4.49376C14.4416 3.71734 13.4304 3.14767 12.33 2.8299C11.2297 2.51213 10.0705 2.45499 8.94424 2.66302C7.818 2.87104 6.75568 3.33851 5.84146 4.02838C4.92725 4.71825 4.18627 5.61155 3.67725 6.63751L6.13975 8.55626Z" fill="#EA4335"/>
</svg>
