<svg width="13" height="13" viewBox="0 0 13 13" fill="none" xmlns="http://www.w3.org/2000/svg">
<path fill-rule="evenodd" clip-rule="evenodd" d="M6.20219 1.07792L4.65344 4.40792L0.955936 4.88417C0.884403 4.89311 0.816962 4.92248 0.761691 4.96876C0.70642 5.01504 0.66566 5.07628 0.644292 5.14513C0.622925 5.21398 0.621856 5.28753 0.641213 5.35697C0.66057 5.42641 0.699533 5.4888 0.753436 5.53667L3.49094 8.00042L2.75219 11.6942C2.73827 11.7648 2.74497 11.8379 2.7715 11.9048C2.79802 11.9718 2.84324 12.0296 2.90176 12.0715C2.96028 12.1134 3.02962 12.1376 3.10151 12.1412C3.1734 12.1448 3.2448 12.1276 3.30719 12.0917L6.53969 10.2167L9.77594 12.0917C9.83832 12.1276 9.90972 12.1448 9.98161 12.1412C10.0535 12.1376 10.1228 12.1134 10.1814 12.0715C10.2399 12.0296 10.2851 11.9718 10.3116 11.9048C10.3381 11.8379 10.3449 11.7648 10.3309 11.6942L9.59219 8.00042L12.3297 5.53667C12.3825 5.48835 12.4204 5.42592 12.4389 5.35676C12.4573 5.28759 12.4556 5.21459 12.4339 5.14636C12.4123 5.07814 12.3715 5.01755 12.3165 4.97175C12.2614 4.92596 12.1945 4.89687 12.1234 4.88792L8.42594 4.40792L6.88094 1.07792C6.85111 1.01245 6.80307 0.956942 6.74257 0.918018C6.68206 0.879095 6.61163 0.858398 6.53969 0.858398C6.46774 0.858398 6.39731 0.879095 6.33681 0.918018C6.2763 0.956942 6.22827 1.01245 6.19844 1.07792H6.20219Z" fill="white"/>
</svg>
